<?xml version="1.0" encoding="utf-8"?>
<!-- Generator: Adobe Illustrator 23.0.1, SVG Export Plug-In . SVG Version: 6.00 Build 0)  -->
<svg version="1.1" id="Layer_1" xmlns="http://www.w3.org/2000/svg" xmlns:xlink="http://www.w3.org/1999/xlink" x="0px" y="0px"
	 viewBox="0 0 16 16" style="enable-background:new 0 0 16 16;" xml:space="preserve">
<style type="text/css">
	.st0{fill:#0091EA;}
</style>
<path class="st0" d="M3.2,6.9c1.3,2.5,3.3,4.6,5.9,5.9l2-2c0.2-0.2,0.6-0.3,0.9-0.2c1,0.3,2.1,0.5,3.2,0.5c0.5,0,0.9,0.4,0.9,0.9
	v3.1c0,0.5-0.4,0.9-0.9,0.9C6.8,16,0,9.2,0,0.9C0,0.4,0.4,0,0.9,0H4c0.5,0,0.9,0.4,0.9,0.9c0,1.1,0.2,2.2,0.5,3.2
	c0.1,0.3,0,0.7-0.2,0.9L3.2,6.9z"/>
</svg>
